<?xml version="1.0" encoding="utf-8"?>
<!-- Generator: Adobe Illustrator 25.2.3, SVG Export Plug-In . SVG Version: 6.00 Build 0)  -->
<svg version="1.1" id="Layer_1" xmlns="http://www.w3.org/2000/svg" xmlns:xlink="http://www.w3.org/1999/xlink" x="0px" y="0px"
	 viewBox="0 0 1080 1080" style="enable-background:new 0 0 1080 1080;" xml:space="preserve">
<style type="text/css">
	.st0{fill:#4ead86;}
</style>
<path class="st0" d="M323.5,1008h-62.7c-54.4,0-98.6-44.1-98.6-98.6v-81.3c0-54.4,44.1-98.6,98.6-98.6h62.7
	c54.4,0,98.6,44.1,98.6,98.6v81.3C422.1,963.9,377.9,1008,323.5,1008z"/>
<path class="st0" d="M162.2,662.7V541.4c0-78.5,63.7-142.2,142.2-142.2H719c5.9,0,10.7,4.8,10.7,10.7v68.7
	c0,107.6-87.2,194.8-194.8,194.8H172.9C167,673.4,162.2,668.6,162.2,662.7z"/>
<path class="st0" d="M162.2,336.5v-39.3c0-78.5,78.4-224.2,183.1-224.2h559.3c7.9,0,14.3,4.8,14.3,10.7v68.7
	c0,107.6-83.3,194.8-226.7,194.8H176.5C168.6,347.2,162.2,342.4,162.2,336.5z"/>
</svg>
